#!OML:ASF E:\motion texture\Top Level 1\Subject 1\Session 1\male.ASF
:FULLY-SPECIFIED
:DEGREES
112
root 16.4204 17.6451 6.85634 97.4688 -82.9359 -91.4704
lowerback -1.91807 2.36718 2.72169
upperback -2.31014 3.10713 -0.0134545
thorax -1.15007 1.50458 -1.5047
lowerneck -14.0925 -4.1985 -7.22679
upperneck 16.112 -4.5364 1.65722
head 7.4904 -2.4863 1.236
rclavicle -6.69656e-015 -1.35174e-014
rhumerus -26.1994 -0.336314 -82.8047
rradius 57.9602
rwrist -12.0637
rhand -16.7605 -41.536
rfingers 7.12502
rthumb 9.46643 -71.3034
lclavicle -6.69656e-015 -1.35174e-014
lhumerus -32.5161 1.8401 86.2951
lradius 74.1502
lwrist -4.88203
lhand -4.83233 33.602
lfingers 7.12502
lthumb 20.9545 62.4901
rfemur -7.78637 -3.11959 28.7536
rtibia 50.8323
rfoot 6.96444 -9.27825
rtoes 0.178945
lfemur -26.2093 -2.97068 -10.9535
ltibia 23.9047
lfoot -1.79088 1.20883
ltoes 3.61281
113
root 16.2702 17.6597 6.87659 96.8079 -83.3543 -90.9841
lowerback -1.8451 2.28343 2.30226
upperback -2.25142 3.00167 -0.118343
thorax -1.15047 1.45837 -1.38154
lowerneck -14.1858 -4.15193 -7.21882
upperneck 16.2193 -4.45566 1.58773
head 7.53668 -2.45519 1.21858
rclavicle 1.04362e-014 9.54166e-015
rhumerus -26.2469 -0.908435 -82.1549
rradius 58.6578
rwrist -11.8131
rhand -17.2138 -41.7454
rfingers 7.12502
rthumb 9.02901 -71.5321
lclavicle 1.04362e-014 9.54166e-015
lhumerus -32.3078 1.33402 86.2802
lradius 75.189
lwrist -6.08309
lhand -4.44285 33.1029
lfingers 7.12502
lthumb 21.3287 61.9491
rfemur -8.87162 -3.79025 27.999
rtibia 52.886
rfoot 9.06089 -10.1277
rtoes 1.81629
lfemur -25.386 -3.0996 -11.648
ltibia 23.8243
lfoot -2.2941 1.08302
ltoes 3.77487
114
root 16.1224 17.6742 6.8959 95.7752 -83.7536 -90.1168
lowerback -1.76128 2.18717 1.89622
upperback -2.20291 2.87896 -0.203948
thorax -1.16747 1.40285 -1.24667
lowerneck -14.252 -4.1029 -7.2101
upperneck 16.2978 -4.36956 1.49703
head 7.56818 -2.42331 1.19534
rclavicle 2.39039e-014 1.35174e-014
rhumerus -26.2803 -1.52309 -81.4483
rradius 59.4649
rwrist -11.4897
rhand -17.5977 -41.7667
rfingers 7.12502
rthumb 8.65859 -71.5691
lclavicle 2.39039e-014 1.35174e-014
lhumerus -32.1097 0.833657 86.2435
lradius 76.3255
lwrist -7.27117
lhand -4.12567 32.6597
lfingers 7.12502
lthumb 21.6333 61.4712
rfemur -9.96891 -4.46192 27.3022
rtibia 54.8784
rfoot 10.6087 -11.1703
rtoes 2.93628
lfemur -24.5604 -3.22432 -12.3121
ltibia 23.6969
lfoot -2.77471 0.956533
ltoes 3.93814
115
root 15.9778 17.689 6.91356 94.0881 -84.1133 -88.5832
lowerback -1.66044 2.0728 1.52078
upperback -2.16893 2.73137 -0.26975
thorax -1.20805 1.33405 -1.10942
lowerneck -14.2794 -4.04992 -7.20273
upperneck 16.3463 -4.28024 1.40394
head 7.58297 -2.39009 1.17274
rclavicle 1.49585e-014 7.15625e-015
rhumerus -26.2991 -2.19294 -80.6965
rradius 60.373
rwrist -11.1387
rhand -17.8949 -41.6382
rfingers 7.12502
rthumb 8.37176 -71.4523
lclavicle 1.49585e-014 7.15625e-015
lhumerus -31.9162 0.347755 86.172
lradius 77.5399
lwrist -8.40406
lhand -3.89512 32.2735
lfingers 7.12502
lthumb 21.8547 61.0593
rfemur -11.081 -5.15941 26.6874
rtibia 56.7987
rfoot 11.5474 -12.3714
rtoes 3.65224
lfemur -23.747 -3.33406 -12.924
ltibia 23.5319
lfoot -3.2243 0.78988
ltoes 4.09367
116
root 15.8364 17.7044 6.92921 91.6651 -84.412 -86.3035
lowerback -1.53803 1.93978 1.18363
upperback -2.14907 2.55812 -0.308339
thorax -1.27403 1.25172 -0.96642
lowerneck -14.2761 -3.99246 -7.18812
upperneck 16.3707 -4.18606 1.29624
head 7.58385 -2.35537 1.14537
rclavicle 3.14328e-015 9.54166e-015
rhumerus -26.306 -2.89892 -79.9077
rradius 61.3843
rwrist -10.8226
rhand -18.1484 -41.4143
rfingers 7.12502
rthumb 8.12714 -71.238
lclavicle 3.14328e-015 9.54166e-015
lhumerus -31.7179 -0.109436 86.0669
lradius 78.819
lwrist -9.44303
lhand -3.74599 31.9224
lfingers 7.12502
lthumb 21.9979 60.6915
rfemur -12.2044 -5.88787 26.1721
rtibia 58.6277
rfoot 11.8989 -13.6539
rtoes 4.32503
lfemur -22.9467 -3.42854 -13.4609
ltibia 23.3308
lfoot -3.64112 0.574588
ltoes 4.22989
117
root 15.6979 17.7207 6.94307 88.531 -84.6322 -83.3012
lowerback -1.40324 1.79193 0.897931
upperback -2.13523 2.36423 -0.317868
thorax -1.35108 1.15856 -0.822259
lowerneck -14.2659 -3.93371 -7.17104
upperneck 16.3799 -4.08954 1.18051
head 7.57833 -2.31992 1.11541
rclavicle 9.92681e-015 -2.38542e-015
rhumerus -26.2882 -3.63294 -79.0885
rradius 62.4978
rwrist -10.5695
rhand -18.4227 -41.186
rfingers 7.12502
rthumb 7.86236 -71.0198
lclavicle 9.92681e-015 -2.38542e-015
lhumerus -31.49 -0.523919 85.9296
lradius 80.1392
lwrist -10.3588
lhand -3.70615 31.6427
lfingers 7.12502
lthumb 22.0361 60.4072
rfemur -13.3406 -6.6415 25.7648
rtibia 60.3479
rfoot 11.7672 -14.9417
rtoes 5.18139
lfemur -22.1614 -3.51498 -13.9077
ltibia 23.1037
lfoot -4.03224 0.323616
ltoes 4.35549
118
root 15.5616 17.738 6.95548 84.8753 -84.7652 -79.7668
lowerback -1.266 1.63339 0.670042
upperback -2.1239 2.1553 -0.300122
thorax -1.42954 1.0574 -0.6817
lowerneck -14.2508 -3.87333 -7.14989
upperneck 16.3766 -3.9909 1.05884
head 7.56769 -2.28353 1.08321
rclavicle -2.97183e-014 -2.70347e-014
rhumerus -26.2461 -4.38153 -78.2508
rradius 63.7221
rwrist -10.3834
rhand -18.6793 -41.0353
rfingers 7.12502
rthumb 7.61467 -70.8782
lclavicle -2.97183e-014 -2.70347e-014
lhumerus -31.2204 -0.886661 85.7579
lradius 81.4821
lwrist -11.1262
lhand -3.78659 31.3812
lfingers 7.12502
lthumb 21.9589 60.1549
rfemur -14.4817 -7.40448 25.4633
rtibia 61.933
rfoot 11.2723 -16.1515
rtoes 6.42863
lfemur -21.3827 -3.59861 -14.2605
ltibia 22.8441
lfoot -4.40095 0.0548033
ltoes 4.4908
119
root 15.4265 17.7563 6.96727 81.1616 -84.8212 -76.1721
lowerback -1.13291 1.47891 0.499414
upperback -2.11184 1.95127 -0.261589
thorax -1.50204 0.958204 -0.550764
lowerneck -14.2365 -3.81358 -7.12548
upperneck 16.3694 -3.89252 0.930356
head 7.55586 -2.24762 1.0482
rclavicle -4.17448e-015 -3.18055e-015
rhumerus -26.184 -5.14192 -77.3972
rradius 65.0477
rwrist -10.2471
rhand -18.9522 -40.9795
rfingers 7.12502
rthumb 7.35125 -70.8318
lclavicle -4.17448e-015 -3.18055e-015
lhumerus -30.9055 -1.1994 85.556
lradius 82.8341
lwrist -11.7641
lhand -3.97062 31.137
lfingers 7.12502
lthumb 21.7822 59.9313
rfemur -15.61 -8.14119 25.245
rtibia 63.3569
rfoot 10.6013 -17.2419
rtoes 7.87358
lfemur -20.5835 -3.68146 -14.532
ltibia 22.534
lfoot -4.74736 -0.199685
ltoes 4.63125
120
root 15.2924 17.7754 6.97865 77.5854 -84.8215 -72.7066
lowerback -1.01089 1.33012 0.369817
upperback -2.10014 1.7545 -0.208333
thorax -1.56646 0.862263 -0.426553
lowerneck -14.2237 -3.75569 -7.10368
upperneck 16.3606 -3.79565 0.79973
head 7.54405 -2.21275 1.01269
rclavicle -5.07522e-015 -4.77083e-015
rhumerus -26.1029 -5.91002 -76.5359
rradius 66.4719
rwrist -10.135
rhand -19.2332 -41.0287
rfingers 7.12502
rthumb 7.08001 -70.8903
lclavicle -5.07522e-015 -4.77083e-015
lhumerus -30.5329 -1.45845 85.3292
lradius 84.1722
lwrist -12.286
lhand -4.24116 30.8944
lfingers 7.12502
lthumb 21.5224 59.7186
rfemur -16.7297 -8.83177 25.0843
rtibia 64.607
rfoot 9.88353 -18.2117
rtoes 9.33274
lfemur -19.7717 -3.76867 -14.7453
ltibia 22.1771
lfoot -5.07139 -0.425348
ltoes 4.72349
121
root 15.1588 17.795 6.98982 74.2966 -84.7911 -69.5183
lowerback -0.905442 1.19203 0.266117
upperback -2.08865 1.57172 -0.149214
thorax -1.61998 0.773064 -0.30975
lowerneck -14.2105 -3.70428 -7.0895
upperneck 16.3553 -3.7081 0.67961
head 7.53424 -2.18187 0.980785
rclavicle -3.68373e-015 -7.95139e-016
rhumerus -26.003 -6.68878 -75.6728
rradius 67.9808
rwrist -10.0162
rhand -19.502 -41.1249
rfingers 7.12502
rthumb 6.82057 -70.995
lclavicle -3.68373e-015 -7.95139e-016
lhumerus -30.097 -1.67193 85.0779
lradius 85.4846
lwrist -12.7163
lhand -4.59746 30.6527
lfingers 7.12502
lthumb 21.1801 59.5157
rfemur -17.8358 -9.45173 24.9554
rtibia 65.6734
rfoot 9.18251 -19.0418
rtoes 10.5718
lfemur -18.9454 -3.85416 -14.927
ltibia 21.7684
lfoot -5.37051 -0.614858
ltoes 4.74679
122
root 15.0261 17.8147 7.00085 71.2946 -84.7522 -66.6031
lowerback -0.81034 1.06824 0.171823
upperback -2.08419 1.40769 -0.0920217
thorax -1.67358 0.693077 -0.19957
lowerneck -14.1952 -3.66285 -7.07828
upperneck 16.3622 -3.63542 0.567456
head 7.52896 -2.15781 0.950273
rclavicle 1.03803e-014 1.19271e-014
rhumerus -25.8946 -7.48752 -74.8085
rradius 69.5594
rwrist -9.87375
rhand -19.7796 -41.26
rfingers 7.12502
rthumb 6.55259 -71.1386
lclavicle 1.03803e-014 1.19271e-014
lhumerus -29.6134 -1.85485 84.805
lradius 86.772
lwrist -13.0736
lhand -5.02553 30.386
lfingers 7.12502
lthumb 20.7689 59.2945
rfemur -18.9337 -9.99553 24.8345
rtibia 66.5662
rfoot 8.51347 -19.706
rtoes 11.4759
lfemur -18.1137 -3.94382 -15.1001
ltibia 21.3175
lfoot -5.64877 -0.762717
ltoes 4.69976
123
root 14.8942 17.8341 7.01183 68.3725 -84.7152 -63.7512
lowerback -0.725738 0.953862 0.0737555
upperback -2.08868 1.25579 -0.040487
thorax -1.72958 0.619161 -0.0925674
lowerneck -14.1674 -3.63357 -7.07645
upperneck 16.379 -3.58146 0.470628
head 7.52605 -2.14214 0.924357
rclavicle 2.09966e-015 5.56597e-015
rhumerus -25.7787 -8.30558 -73.9424
rradius 71.1914
rwrist -9.69842
rhand -20.0656 -41.3826
rfingers 7.12502
rthumb 6.27644 -71.2697
lclavicle 2.09966e-015 5.56597e-015
lhumerus -29.0881 -2.01319 84.5164
lradius 88.0316
lwrist -13.3687
lhand -5.5539 30.1266
lfingers 7.12502
lthumb 20.2611 59.0899
rfemur -20.0183 -10.474 24.7033
rtibia 67.2772
rfoot 7.88348 -20.1952
rtoes 12.0412
lfemur -17.2834 -4.03847 -15.2855
ltibia 20.8284
lfoot -5.90314 -0.885659
ltoes 4.59599
